# xmcd
#
# Track frame offsets:
#	150
#	18970
#	35535
#	51857
#	66760
#	80320
#	95452
#	106740
#	116417
#	126752
#	141512
#	151380
#	157280
#	176505
#	196772
#	211362
#	224560
#	243147
#	250012
#	263600
#	278492
#	297875
#	323610
#	326732
#
# Disc length: 4560
#
# Revision: 3
# Processed by: cddbd v1.5.1PL0 Copyright (c) Steve Scherf et al.
# Submitted via: VisiTrax 2.9.10.228 - For more info visit www.synapsa.com
# Normalized: r2:DSETVAR1
#
DISCID=5211ce18
DTITLE=Various Artist - Meinmuk, Music from the Top End
DYEAR=1997
DGENRE=
TTITLE0=My Boys Are Good Boys - Guyularri
TTITLE1=Harry Yalungani - Mamarika
TTITLE2=Letterstick - Bartpa
TTITLE3=Leonard Amagula - Black Magic Man
TTITLE4=Marrugeku Company - Road
TTITLE5=Tim Wilson - Love Is Like A Dream
TTITLE6=Galiwinku Salt Water Band - Our Lady
TTITLE7=Broken English - Out Of Control
TTITLE8=Sacred Legend - Speak No Evil
TTITLE9=Bickerton Island Band - Milyakburra Arumanja
TTITLE10=Poison Whiskey - Streets Of No Return
TTITLE11=Marrugeku Company - Karrparra
TTITLE12=Harry Yalungani - Peace
TTITLE13=My Boys Are Good Boys - Djutarra
TTITLE14=Leonard Amagula - Home Sweet Home (Amarranga)
TTITLE15=Broken English - Live or Die
TTITLE16=Letterstick - Yirrana
TTITLE17=Marrugeku Company - Manbarjan Karrparra
TTITLE18=Galiwinku Salt Water Band - Saltwater
TTITLE19=Soft Sands - Promised Land
TTITLE20=Terry Malamburrgnu and Nicky Pascoe - Wanggala
TTITLE21=Gamedi Outstation Choir - Final Judgement
TTITLE22=Marrugeku Company - Munborookork
TTITLE23=Everyone (From The Concert) - Island Home - Live
EXTD=
EXTT0=
EXTT1=
EXTT2=
EXTT3=
EXTT4=
EXTT5=
EXTT6=
EXTT7=
EXTT8=
EXTT9=
EXTT10=
EXTT11=
EXTT12=
EXTT13=
EXTT14=
EXTT15=
EXTT16=
EXTT17=
EXTT18=
EXTT19=
EXTT20=
EXTT21=
EXTT22=
EXTT23=
PLAYORDER=
